<?xml version="1.0" encoding="UTF-8" standalone="no"?>
<!-- Generator: Gravit.io -->
<svg xmlns="http://www.w3.org/2000/svg" xmlns:xlink="http://www.w3.org/1999/xlink" style="isolation:isolate" viewBox="0 0 500 500" width="500pt" height="500pt"><defs><clipPath id="_clipPath_Ksq0a0bzuUBC71UsKRO9U9vCNTD5jGXq"><rect width="500" height="500"/></clipPath></defs><g clip-path="url(#_clipPath_Ksq0a0bzuUBC71UsKRO9U9vCNTD5jGXq)"><g><rect x="78.523" y="101.933" width="349.977" height="349.977" transform="matrix(1,0,0,1,0,0)" fill="none"/><g><path d=" M 340.191 263.461 C 340.268 262.248 319.916 296.255 319.561 296.151 L 269.115 243.382 L 213.702 333.501 L 169.809 282.171 L 116.875 366.895 L 93.105 349.833 L 166.017 233.174 L 209.764 284.213 L 268.094 189.427 C 268.094 189.427 340.191 263.461 340.191 263.461 Z  M 334.861 271.654 C 335.07 271.717 315.464 249.331 315.632 249.069 C 315.632 249.069 390.294 131.098 390.294 131.098 L 413.918 148.305 L 334.861 271.654 Z " fill="rgb(254,192,64)"/></g></g><g><path d=" M 351.272 326.789 C 360.66 326.789 368.342 319.108 368.342 309.719 C 368.342 300.331 360.66 292.65 351.272 292.65 C 341.884 292.65 334.202 300.331 334.202 309.719 C 334.202 319.108 341.884 326.789 351.272 326.789 Z  M 261.656 382.266 C 237.759 382.266 218.982 401.042 218.982 424.94 C 218.982 448.837 237.759 467.614 261.656 467.614 C 285.554 467.614 304.33 448.837 304.33 424.94 C 304.33 401.042 285.554 382.266 261.656 382.266 Z  M 261.656 454.812 C 245.44 454.812 231.784 441.156 231.784 424.94 C 231.784 408.724 245.44 395.068 261.656 395.068 C 277.872 395.068 291.528 408.724 291.528 424.94 C 291.528 441.156 277.872 454.812 261.656 454.812 Z  M 311.158 369.463 L 331.642 348.98 L 338.47 355.808 C 349.565 366.903 364.074 373.731 381.997 373.731 L 381.997 356.661 C 369.195 356.661 358.953 351.54 351.272 343.859 L 335.056 327.643 C 330.788 324.229 326.521 322.522 321.4 322.522 C 316.279 322.522 312.012 324.229 309.451 327.643 L 285.554 351.54 C 282.14 354.954 280.433 359.222 280.433 363.489 C 280.433 368.61 282.14 372.877 285.554 375.438 L 312.865 399.335 L 312.865 442.009 L 329.935 442.009 L 329.935 389.093 L 311.158 369.463 Z  M 381.144 382.266 C 357.246 382.266 338.47 401.042 338.47 424.94 C 338.47 448.837 357.246 467.614 381.144 467.614 C 405.041 467.614 423.818 448.837 423.818 424.94 C 423.818 401.042 405.041 382.266 381.144 382.266 Z  M 381.144 454.812 C 364.928 454.812 351.272 441.156 351.272 424.94 C 351.272 408.724 364.928 395.068 381.144 395.068 C 397.36 395.068 411.016 408.724 411.016 424.94 C 411.016 441.156 397.36 454.812 381.144 454.812 Z " fill="rgb(255,255,255)"/></g><g><path d=" M 186.635 62.087 C 196.023 62.087 203.705 54.406 203.705 45.018 C 203.705 35.629 196.023 27.948 186.635 27.948 C 177.247 27.948 169.565 35.629 169.565 45.018 C 169.565 54.406 177.247 62.087 186.635 62.087 Z  M 155.91 180.722 L 164.444 143.168 L 182.368 160.238 L 182.368 211.447 L 199.437 211.447 L 199.437 147.436 L 181.514 130.366 L 186.635 104.761 C 197.73 117.564 214.8 126.099 233.577 126.099 L 233.577 109.029 C 217.36 109.029 203.705 100.494 196.877 88.545 L 188.342 74.89 C 184.928 69.769 179.807 66.355 173.833 66.355 C 171.272 66.355 169.565 67.208 167.005 67.208 L 122.624 85.985 L 122.624 126.099 L 139.693 126.099 L 139.693 97.08 L 155.056 91.106 L 141.4 160.238 L 99.58 151.703 L 96.166 168.773 L 155.91 180.722 Z " fill="rgb(255,255,255)"/></g></g></svg>