<?xml version="1.0" encoding="UTF-8" standalone="no"?><!-- Generator: Gravit.io --><svg xmlns="http://www.w3.org/2000/svg" xmlns:xlink="http://www.w3.org/1999/xlink" style="isolation:isolate" viewBox="0 0 500 500" width="500pt" height="500pt"><defs><clipPath id="_clipPath_zq0pYGWamvrnxVQFgBv4Qwwov8QEW5f2"><rect width="500" height="500"/></clipPath></defs><g clip-path="url(#_clipPath_zq0pYGWamvrnxVQFgBv4Qwwov8QEW5f2)"><clipPath id="_clipPath_tLwdosZ4vXx1QNmH6eR7AIrd0ZLyBARF"><rect x="0" y="0" width="500" height="500" transform="matrix(1,0,0,1,0,0)" fill="rgb(255,255,255)"/></clipPath><g clip-path="url(#_clipPath_tLwdosZ4vXx1QNmH6eR7AIrd0ZLyBARF)"><g><path d=" M 322.917 119.792 Q 305.729 119.792 293.49 107.552 Q 281.25 95.313 281.25 78.125 Q 281.25 60.938 293.49 48.698 Q 305.729 36.458 322.917 36.458 Q 340.104 36.458 352.344 48.698 Q 364.583 60.938 364.583 78.125 Q 364.583 95.313 352.344 107.552 Q 340.104 119.792 322.917 119.792 Z  M 225 223.958 L 270.833 271.875 L 270.833 401.042 L 229.167 401.042 L 229.167 296.875 L 162.5 238.542 Q 155.208 232.292 152.604 225.521 Q 150 218.75 150 209.375 Q 150 200 152.865 193.49 Q 155.729 186.979 162.5 180.208 L 220.833 121.875 Q 227.604 115.104 235.156 112.24 Q 242.708 109.375 252.083 109.375 Q 261.458 109.375 269.01 112.24 Q 276.563 115.104 283.333 121.875 L 322.917 161.458 Q 336.979 175.521 355.729 184.115 Q 374.479 192.708 397.917 192.708 L 397.917 234.375 Q 365.104 234.375 338.542 222.656 Q 311.979 210.938 291.667 190.625 L 275 173.958 L 225 223.958 Z " fill="rgb(33,37,41)"/></g></g><rect x="0" y="271" width="30" height="178" transform="matrix(1,0,0,1,0,0)" fill="rgb(33,37,41)"/><rect x="74" y="197" width="30" height="178" transform="matrix(0,1,-1,0,375,197)" fill="rgb(33,37,41)"/><rect x="74" y="345" width="30" height="178" transform="matrix(0,1,-1,0,523,345)" fill="rgb(33,37,41)"/><rect x="148" y="271" width="30" height="178" transform="matrix(1,0,0,1,0,0)" fill="rgb(33,37,41)"/><rect x="322" y="271" width="30" height="178" transform="matrix(1,0,0,1,0,0)" fill="rgb(33,37,41)"/><rect x="396" y="197" width="30" height="178" transform="matrix(0,1,-1,0,697,-125)" fill="rgb(33,37,41)"/><rect x="396" y="345" width="30" height="178" transform="matrix(0,1,-1,0,845,23)" fill="rgb(33,37,41)"/><rect x="470" y="271" width="30" height="178" transform="matrix(1,0,0,1,0,0)" fill="rgb(33,37,41)"/></g></svg>