<?xml version="1.0" encoding="UTF-8" standalone="no"?><!-- Generator: Gravit.io --><svg xmlns="http://www.w3.org/2000/svg" xmlns:xlink="http://www.w3.org/1999/xlink" style="isolation:isolate" viewBox="0 0 500 500" width="500pt" height="500pt"><defs><clipPath id="_clipPath_Q3OLOLoATtj1b0wTu90IcVjXX4ViNBUU"><rect width="500" height="500"/></clipPath></defs><g clip-path="url(#_clipPath_Q3OLOLoATtj1b0wTu90IcVjXX4ViNBUU)"><path d=" M 157.609 500 Q 151.087 500 146.196 495.109 Q 141.304 490.217 141.304 483.696 Q 141.304 477.174 146.196 472.283 Q 151.087 467.391 157.609 467.391 Q 164.13 467.391 169.022 472.283 Q 173.913 477.174 173.913 483.696 Q 173.913 490.217 169.022 495.109 Q 164.13 500 157.609 500 Z  M 342.391 500 Q 335.87 500 330.978 495.109 Q 326.087 490.217 326.087 483.696 Q 326.087 477.174 330.978 472.283 Q 335.87 467.391 342.391 467.391 Q 348.913 467.391 353.804 472.283 Q 358.696 477.174 358.696 483.696 Q 358.696 490.217 353.804 495.109 Q 348.913 500 342.391 500 Z  M 146.739 456.522 Q 122.283 456.522 101.63 445.924 Q 80.978 435.326 67.391 417.391 Q 65.761 414.674 64.946 412.5 Q 64.13 410.326 64.13 407.609 Q 64.13 401.087 68.478 396.196 Q 72.826 391.304 80.435 391.304 Q 84.783 391.304 87.772 392.935 Q 90.761 394.565 93.478 397.826 Q 100 407.065 110.054 413.315 Q 120.109 419.565 131.522 422.283 L 199.457 340.217 L 170.652 250 Q 167.935 240.761 169.022 231.522 Q 170.109 222.283 175 214.13 L 227.174 130.435 L 176.087 130.435 L 134.783 196.739 L 97.826 173.913 L 152.174 86.957 L 276.087 86.957 Q 290.761 86.957 299.728 95.109 Q 308.696 103.261 311.957 110.326 L 323.37 136.413 Q 334.239 162.5 358.424 179.076 Q 382.609 195.652 413.043 195.652 L 413.043 239.13 Q 375 239.13 343.478 220.924 Q 311.957 202.717 292.935 172.826 L 253.804 235.326 L 347.826 293.478 L 347.826 423.913 L 354.348 423.913 Q 370.109 423.913 383.696 416.848 Q 397.283 409.783 406.522 397.826 Q 409.239 394.565 412.228 392.935 Q 415.217 391.304 419.565 391.304 Q 426.63 391.304 431.25 396.196 Q 435.87 401.087 435.87 407.609 Q 435.87 410.326 435.054 412.5 Q 434.239 414.674 432.609 417.391 Q 419.022 435.326 398.913 445.924 Q 378.804 456.522 354.348 456.522 L 146.739 456.522 Z  M 186.957 423.913 L 304.348 423.913 L 304.348 323.913 L 228.261 276.087 L 250 347.826 L 186.957 423.913 Z  M 326.087 86.957 Q 308.152 86.957 295.38 74.185 Q 282.609 61.413 282.609 43.478 Q 282.609 25.543 295.38 12.772 Q 308.152 0 326.087 0 Q 344.022 0 356.793 12.772 Q 369.565 25.543 369.565 43.478 Q 369.565 61.413 356.793 74.185 Q 344.022 86.957 326.087 86.957 Z " fill="rgb(33,37,41)"/></g></svg>