<?xml version="1.0" encoding="UTF-8" standalone="no"?><!-- Generator: Gravit.io --><svg xmlns="http://www.w3.org/2000/svg" xmlns:xlink="http://www.w3.org/1999/xlink" style="isolation:isolate" viewBox="0 0 500 500" width="500pt" height="500pt"><defs><clipPath id="_clipPath_f9ee4fFvVE9m1cyyEYDIfJULKRQw8zPq"><rect width="500" height="500"/></clipPath></defs><g clip-path="url(#_clipPath_f9ee4fFvVE9m1cyyEYDIfJULKRQw8zPq)"><path d=" M 295.64 481.608 L 318.801 256.131 Q 279.973 245.913 260.218 229.223 Q 240.463 212.534 220.708 192.779 L 155.995 256.812 L 213.896 314.714 L 213.896 481.608 L 159.401 481.608 L 159.401 338.556 L 138.283 319.482 L 143.052 356.267 L 42.916 485.014 L 0 451.635 L 85.831 341.281 L 47.003 264.986 Q 41.553 253.406 40.872 236.035 Q 40.191 218.665 52.452 206.403 L 143.733 116.485 Q 151.907 108.311 161.785 104.223 Q 171.662 100.136 181.88 100.136 Q 198.229 100.136 207.766 106.267 Q 217.302 112.398 220.708 115.804 L 275.204 169.619 Q 293.597 188.011 320.163 198.569 Q 346.73 209.128 377.384 209.128 L 422.343 209.128 Q 438.011 209.128 449.591 219.687 Q 461.172 230.245 462.534 245.913 L 480.245 418.937 Q 489.101 424.387 494.55 433.583 Q 500 442.779 500 454.36 Q 500 471.39 488.079 483.311 Q 476.158 495.232 459.128 495.232 Q 442.098 495.232 429.837 483.311 Q 417.575 471.39 417.575 454.36 Q 417.575 442.779 423.025 433.583 Q 428.474 424.387 438.011 418.937 L 434.605 386.24 L 346.049 386.24 L 336.512 481.608 L 295.64 481.608 Z  M 282.016 113.76 Q 259.537 113.76 243.529 97.752 Q 227.52 81.744 227.52 59.264 Q 227.52 36.785 243.529 20.777 Q 259.537 4.768 282.016 4.768 Q 304.496 4.768 320.504 20.777 Q 336.512 36.785 336.512 59.264 Q 336.512 81.744 320.504 97.752 Q 304.496 113.76 282.016 113.76 Z  M 350.136 345.368 L 430.518 345.368 L 420.981 250 L 360.354 250 L 350.136 345.368 Z " fill="rgb(33,37,41)"/></g></svg>