<?xml version="1.0" encoding="UTF-8" standalone="no"?><!-- Generator: Gravit.io --><svg xmlns="http://www.w3.org/2000/svg" xmlns:xlink="http://www.w3.org/1999/xlink" style="isolation:isolate" viewBox="0 0 500 500" width="500pt" height="500pt"><defs><clipPath id="_clipPath_u0lZLHktZUVcPYaw2mseVHgPfkUL1sOd"><rect width="500" height="500"/></clipPath></defs><g clip-path="url(#_clipPath_u0lZLHktZUVcPYaw2mseVHgPfkUL1sOd)"><path d=" M 500 312.5 Q 500 349.375 474.688 374.688 Q 449.375 400 412.5 400 Q 406.875 400 403.75 398.437 Q 400.625 396.875 398.75 398.75 Q 396.875 400.625 398.438 403.75 Q 400 406.875 400 412.5 Q 400 449.375 374.688 474.687 Q 349.375 500 312.5 500 Q 275.625 500 250.313 474.687 Q 225 449.375 225 412.5 Q 225 398.125 228.75 386.25 Q 232.5 374.375 240 363.75 L 136.25 260 Q 125.625 267.5 113.75 271.25 Q 101.875 275 87.5 275 Q 50.625 275 25.313 249.687 Q 0 224.375 0 187.5 Q 0 150.625 25.313 125.312 Q 50.625 100 87.5 100 Q 93.125 100 96.25 101.562 Q 99.375 103.125 101.25 101.25 Q 103.125 99.375 101.563 96.25 Q 100 93.125 100 87.5 Q 100 50.625 125.313 25.312 Q 150.625 0 187.5 0 Q 224.375 0 249.688 25.312 Q 275 50.625 275 87.5 Q 275 101.875 271.25 113.75 Q 267.5 125.625 260 136.25 L 363.75 240 Q 374.375 232.5 386.25 228.75 Q 398.125 225 412.5 225 Q 449.375 225 474.688 250.313 Q 500 275.625 500 312.5 Z  M 450 312.5 Q 450 296.25 439.375 285.625 Q 428.75 275 412.5 275 Q 406.875 275 401.563 276.562 Q 396.25 278.125 391.25 281.25 Q 376.25 291.875 359.063 290 Q 341.875 288.125 328.75 275 L 225 171.25 Q 211.875 158.125 210 140.937 Q 208.125 123.75 218.75 108.75 Q 221.875 103.75 223.438 98.437 Q 225 93.125 225 87.5 Q 225 71.25 214.375 60.625 Q 203.75 50 187.5 50 Q 171.25 50 160.625 60.625 Q 150 71.25 150 87.5 Q 150 109.375 147.813 118.125 Q 145.625 126.875 136.25 136.25 Q 126.875 145.625 118.125 147.812 Q 109.375 150 87.5 150 Q 71.25 150 60.625 160.625 Q 50 171.25 50 187.5 Q 50 203.75 60.625 214.375 Q 71.25 225 87.5 225 Q 94.375 225 99.063 223.75 Q 103.75 222.5 108.75 218.75 Q 123.75 208.125 140.938 210 Q 158.125 211.875 171.25 225 L 275 328.75 Q 288.125 341.875 290 359.062 Q 291.875 376.25 281.25 391.25 Q 278.125 396.25 276.563 401.562 Q 275 406.875 275 412.5 Q 275 428.75 285.625 439.375 Q 296.25 450 312.5 450 Q 328.75 450 339.375 439.375 Q 350 428.75 350 412.5 Q 350 390.625 352.188 381.875 Q 354.375 373.125 363.75 363.75 Q 373.125 354.375 381.875 352.187 Q 390.625 350 412.5 350 Q 428.75 350 439.375 339.375 Q 450 328.75 450 312.5 Z " fill="rgb(33,37,41)"/></g></svg>